# xmcd
#
# Track frame offsets: 
#        150
#        14279
#        29110
#        71933
#        85283
#        101577
#        116915
#        128991
#        150318
#        161806
#        176415
#        187247
#        199852
#        219716
#        239247
#        258778
#        275045
#        288585
#        300318
#
# Disc length: 4158 seconds
#
# Revision: 0
# Processed by: cddbd v1.5.2PL0 Copyright (c) Steve Scherf et al.
# Submitted via: ExactAudioCopy v1.3
#
DISCID=28103c13
DTITLE=The Nighthawks - Best Of The Nighthawks
DYEAR=1990
DGENRE=Blues, Rock'n'Roll
TTITLE0=Bring It On Home
TTITLE1=9 Below Zero
TTITLE2=Shake And Finger Pop
TTITLE3=Madison Blues
TTITLE4=Red Hot Mama
TTITLE5=Can't Get Next To You
TTITLE6=You Got To Move
TTITLE7=Little By Little
TTITLE8=Are You Lonely
TTITLE9=Claudette
TTITLE10=Ubangi Stomp
TTITLE11=Sea Cruise
TTITLE12=What A Girl Can't Do
TTITLE13=I Keep Cryin'
TTITLE14=Tramp On The Highway
TTITLE15=Fat Back Mama
TTITLE16=Tripe Face Boogie
TTITLE17=Slow Down
TTITLE18=Nervous Breakdown
EXTD=
EXTT0=
EXTT1=
EXTT2=
EXTT3=
EXTT4=
EXTT5=
EXTT6=
EXTT7=
EXTT8=
EXTT9=
EXTT10=
EXTT11=
EXTT12=
EXTT13=
EXTT14=
EXTT15=
EXTT16=
EXTT17=
EXTT18=
PLAYORDER=
